<?xml version="1.0" encoding="utf-8"?>
<!-- Generator: Adobe Illustrator 24.2.0, SVG Export Plug-In . SVG Version: 6.00 Build 0)  -->
<svg version="1.1" id="Layer_1" xmlns="http://www.w3.org/2000/svg" xmlns:xlink="http://www.w3.org/1999/xlink" x="0px" y="0px"
	 viewBox="0 0 200 300" style="enable-background:new 0 0 200 300;" xml:space="preserve">
<style type="text/css">
	.st0{fill:#FADFB6;}
	.st1{fill:#CBAE8D;}
	.st2{fill:#5A5D69;}
</style>
<g>
	<g>
		<path class="st0" d="M166.2,165.5c1.2,1.3,2.3,2.6,3,4.2c0.8,1.7,2.6,2.6,4,3.7c7.7,6.3,13.7,13.9,16.7,23.5
			c1.7,5.4,2.9,10.9,1.6,16.6c-0.1,0.6-0.2,1.3,0,1.8c0.8,2.5,0.5,5.1,0.5,7.7c0.1,0.8,0.5,1.6,0.2,2.5c-5,16.8-18.3,25-33,31.5
			c-17.4,7.6-35.7,10.9-54.7,10.9c-14.2,0-28.2-0.5-42-3.9c-15.4-3.7-29.9-9.3-42.3-19.5c-4.3-3.5-7.4-7.9-10.1-12.8
			c-1-1.9-0.8-4-1.2-6c0-3.6-0.9-7.1-0.2-10.7c0.3-1.5,0-3-0.3-4.6c-0.7-2.9,0.1-5.8,0.7-8.5c2.4-11.4,8.5-20.6,17.5-27.9
			c2.2-1.8,4.5-3.6,6.9-5.2c1-0.6,1.3-1.4,1.4-2.5c0.3-3.6,1.2-7,3.1-10.2c3.6-6.2,5.6-13,7.3-19.9c1-4,2.6-7.8,3.3-11.9
			c0.9-5.5,0.7-11.1,0.3-16.6c-0.2-3.6-0.6-7.3-1.5-10.9c-0.7-3-1.3-6.1-2.5-8.9c-1.3-2.9-1.5-5.9-1.3-9c1.4-1.1,2.7-0.5,4,0
			c10.1,4.4,20.7,7.6,31.6,8.9c7.9,0.9,15.9,2,23.9,1.1c2.7-0.3,5.5-0.4,8.3,0.2c1.3,0.1,2.5,0.3,3.5,1.2c0.9,1.1,1.1,2.4,1,3.8
			c-0.3,8.1,0.4,16.1,0.8,24.1c0.5,11.3,0.6,22.6,1.6,33.9c0.5,5.3,0.4,10.7,0.5,16.1c0.2,8.3,1.1,16.7,0.8,25
			c-0.1,2.5,0.7,4.9,0.6,7.4c-0.1,3.6-1.1,4.9-4.6,5.3c-25,2.7-48.7-1.3-70.8-13.7c-4.2-2.4-6.8-5.3-9.7-10.5
			c-1.5,3.8,0.3,9.7,3.9,13.9c5.9,6.8,13.5,10.8,21.7,13.9c9.9,3.7,20.2,5.4,30.8,6.4c11.1,1.1,22,0.1,32.9-1.4
			c3.5-0.5,5.5,0.9,6.9,3.8c3.6,7.6,7.9,14.9,11.6,22.6c0.9,2,2,3.8,3.2,5.6c1.8,2.7,4.3,3.6,7.2,2.6c9.9-3.6,18.2-9.6,25-17.6
			c3.3-3.8,3.5-10.4,0.6-14.8c-3.4-5.2-7-10.2-10.8-15.1c-2.5-3.2-3.1-6.3-0.9-9.9c2-3.3,2.7-6.9,1.6-11c-1.3,2.2-2.2,4.5-4,6.1
			c-2.3,2.2-3.7,1.8-4.5-1.3c-0.7-2.6-0.6-5.3-0.8-8c-0.5-7.4-3.9-13.8-7.1-20.3c-3.9-7.9-7.4-15.9-9.1-24.6
			c-0.9-4.4-0.7-8.8,0-13.2c0.2-1.2,0.5-2.7,2-2.8c1.8-0.1,2.1,1.6,2.3,2.8c1.4,8.3,4.3,16.1,7.1,24c2.3,6.2,5.6,11.9,8.6,17.8
			C164.3,162.6,164.1,164.8,166.2,165.5z"/>
		<path class="st1" d="M166.2,165.5c-0.2,0.9,0.1,1.9-0.7,2.6c-0.9,0.1-0.9-0.7-1.1-1.2c-1.7-4.6-3.8-8.9-6.2-13.1
			c-2.5-4.3-3.9-9.1-5.8-13.7c-2.8-7.2-4.9-14.6-6.1-22.3c-0.1-0.4-0.1-0.8-0.9-1c-0.3,1.4-0.8,2.8-0.9,4.3
			c-0.3,5.8-0.2,11.5,1.8,17.1c2.3,6.5,4.8,12.9,8,19.1c1.9,3.8,3.5,7.7,5.2,11.6c1.3,3,1.3,6.2,1.6,9.4c0.3,3,0.7,5.9,0.9,9.2
			c4.1-2.5,5.2-6.8,7.2-10.9c2.1,4.8,2.1,9.2,0.3,13.7c-0.5,1.1-0.9,2.4-1.7,3.3c-1.5,1.8-1.1,3.3,0.1,5c4.1,5.6,8.1,11.2,12,16.8
			c3.4,5,3.1,10.3,0.5,15.5c-0.3,0.5-0.7,1.1-1.1,1.5c-7.1,7.9-15.4,14-25.3,17.7c-3.7,1.4-7.2,0.2-9.2-3.4
			c-4.7-8.8-9.3-17.7-13.9-26.6c-2.8-5.4-2.7-5.2-8.8-4.3c-9.8,1.4-19.6,2-29.5,1.2c-8.2-0.7-16.3-1.9-24.3-4
			c-8-2.1-15.6-5.2-22.5-9.9c-3.9-2.6-7.3-5.8-9.7-9.8c-3.1-5-3.8-10.3-1.5-15.9c1.2,0.2,1.1,1.2,1.3,1.9c1.8,5.4,5.4,9.2,10.3,11.8
			c10,5.5,20.6,9.5,31.8,11.7c6.2,1.3,12.5,2.3,19,2.2c6.6-0.1,13.2,0.2,19.8-0.6c1.6-0.2,2.7-0.7,2.4-2.4c-1.1-6.7-0.1-13.6-1-20.3
			c-0.1-0.5-0.2-1-0.1-1.5c0.3-8.3-0.6-16.5-0.8-24.7c-0.3-10.8-0.9-21.6-1.3-32.4c-0.2-5,0-10.1-0.6-15.1
			c-0.7-5.8-0.3-11.5-0.6-17.3c1.6-2,3.2-0.7,4.6,0c3,1.6,6,3.2,9.4,3.7c6.1,0.8,11.8-0.5,17.2-3.5c1.2-0.7,1.8-1.9,2.3-3.2
			c0.9-2.4,1.9-4.8,3-7.1c1.5-2.9,3.3-3.9,6.1-3.5c-0.1,0.3,0,0.7-0.2,0.9c-3.6,5.3-4.5,11.3-4.7,17.6c-0.1,3.8-1.1,7.5-1.5,11.3
			c-0.5,4.3-0.4,8.6,0,13c0.7,7.4,3.6,14.1,6.8,20.7c0.8,1.7,1.3,3.5,2,5.2c1.2,2.8,2.3,5.7,3.8,8.4
			C165.6,157.7,166.4,161.5,166.2,165.5z"/>
		<path class="st1" d="M8.9,225.6c1.6,2.9,2.5,6.1,4.3,8.8c4.8,7.3,11.5,12.5,19,16.7c12.7,7.1,26.5,11.1,40.8,13.5
			c12,2,24,1.9,36,1.8c11.5-0.1,22.8-2.1,33.9-5.2c8.5-2.3,16.6-5.5,24.3-9.7c7.6-4.1,14.1-9.6,19.3-16.5c2.3-3.1,3.3-6.8,4.9-10.2
			c2.3,1.2,2,3.5,1.8,5.5c-0.5,4.8-0.7,9.7-1.4,14.4c-0.5,3-0.1,6-0.6,8.9c-1.7,10-7.4,17.5-15.1,23.7
			c-13.2,10.6-28.7,16.2-45.2,19.4c-6.4,1.3-12.9,0.9-19.3,1.7c-6.4,0-12.8,0.3-19.2-0.1c-9.3-0.6-18.6-1.8-27.7-3.8
			c-10-2.2-19.5-5.7-28.6-10.6c-8.2-4.4-15.3-10.2-20.7-17.7c-3.4-4.8-5.5-10.2-5.5-16.4c0-4.6-0.6-9.2-1.3-13.8
			C8.1,232.7,8,229.2,8.9,225.6z"/>
		<path class="st1" d="M111.8,89.8c-4.4,0.1-8.8,0.7-13.2,0.6c-15.6-0.3-30.9-2.3-45.5-8c-3.2-1.2-6.1-3.1-9.4-3.8
			C41.3,77.1,40,75,39,72.4c-1.1-2.9-3.1-5.4-5-7.7c-5.9-7.2-7.6-15.3-6.1-24.3c0.5-2.8,0.9-5.7,1.3-8.5c0.9-6,4.4-9.8,9.5-12.5
			C51.4,12.4,64.7,6.8,79,4.2c4.5-0.8,9.1-1.6,13.8-1.5c2.3,0,4.5-0.6,6.7-0.6c16.4-0.2,32.2,3,47.7,8.4c6.7,2.3,12.5,5.7,17.5,10.5
			c2.5,2.3,4.3,5.2,5.1,8.6c1.2,5.1,2.1,10.2,2.4,15.5c0.5,8.9-3.2,16.2-9,22.6c-0.5,0.6-1.1,1.3-1.6,1.9
			c-9.7,10.6-22.2,15.6-36,17.9c-3.2,0.5-6.5,0.9-9.8,0.7C114.2,88,113,88.8,111.8,89.8z"/>
		<path class="st2" d="M111.8,89.8c0.1-2.7,0.2-2.9,3.1-2.8c8.2,0.1,16.2-1.2,23.9-4c7.6-2.7,14.4-6.9,20.7-12
			c0.7-0.6,1.3-1.4,2.3-1.4c-1,2.9-1.9,5.7-4.4,7.7c-2.8,0.9-4.8,2.5-5.7,5.4c-0.7,2.1-1.7,4.2-2.5,6.3c-0.6,1.6-1.6,2.8-3.2,3.6
			c-8.9,4-17.7,5.2-26.5-0.2c-1.4-0.9-2.8-2.2-4.8-1.6C113.7,90.5,112.5,90.6,111.8,89.8z"/>
		<path class="st2" d="M122.4,212c-1.4,0-2.5-0.1-2.6-1.4c-0.2-1.7,1.2-2,2.4-2.2c6.3-1.2,12.4-3,18.4-5.2c5.2-1.8,10.1-4,14.7-7
			c1.2-0.8,2.2-1.8,3.3-2.7c0.9-0.7,1.9-1,2.7,0c0.8,0.9,0.6,1.9-0.3,2.8c-3,3-6.7,5.1-10.5,6.9c-8.5,4-17.4,6.7-26.6,8.7
			C123.3,211.9,122.7,211.9,122.4,212z"/>
		<path class="st0" d="M88.2,8.8c6.2,0.9,12.6,0.2,18.8,0.8c11.3,1.1,22.7,1.7,33.8,4.8c5.2,1.5,10.1,3.6,15.1,5.5
			c1.8,0.7,3.1,2.2,4.1,3.7c1.5,2.2,2.9,4.5,4.4,6.7c2.3,3.4,2.3,7,0.8,10.6c-0.9,2.1-2,4.1-3,6.1c-1,2-2.6,3.4-4.5,4.5
			c-10.7,6.1-22.1,9.9-34.2,11.9c-6.2,1.1-12.4,1.5-18.7,1.9c-16.6,1-32.8-1.3-48.6-6.2c-4.4-1.4-8.7-3.3-12.8-5.4
			c-1.2-0.6-2.2-1.5-3-2.6c-2.4-3.3-4.4-6.8-5.9-10.5C32,34.8,34.5,30.2,38.3,26c4.7-5.2,10.8-8.3,17.1-10.9
			c8.3-3.4,17-5.4,26.1-5.8C83.7,9.3,85.9,8.6,88.2,8.8z"/>
		<path class="st1" d="M92.4,17.5c6.6-0.6,13.2,0.3,19.7,0.7c8.1,0.5,16.1,1.6,24,3.7c2.6,0.7,5.1,1.6,6.9,3.8
			c2.2,2.6,1.8,5.3-0.8,7.5c-5.2,4.3-11.5,5.8-17.8,7.2c-12,2.6-24.3,2.9-36.5,2.4c-7.2-0.3-14.2-1.8-21.2-3.4
			c-3.4-0.8-6.8-1.6-9.7-3.7c-4.4-3.2-4.2-8.4,0.6-11c6.8-3.6,13.9-6,21.6-6.8C83.6,17.5,88,17.7,92.4,17.5z"/>
	</g>
</g>
</svg>
