<?xml version="1.0" encoding="utf-8"?>
<!-- Generator: Adobe Illustrator 24.2.0, SVG Export Plug-In . SVG Version: 6.00 Build 0)  -->
<svg version="1.1" id="Layer_1" xmlns="http://www.w3.org/2000/svg" xmlns:xlink="http://www.w3.org/1999/xlink" x="0px" y="0px"
	 viewBox="0 0 200 281.9" style="enable-background:new 0 0 200 281.9;" xml:space="preserve">
<style type="text/css">
	.st0{fill:#CBAE8D;}
	.st1{fill:#FADFB6;}
	.st2{fill:#5A5D69;}
	.st3{fill:#F9DEB6;}
</style>
<g>
	<g>
		<path class="st0" d="M12.2,210.9c-2.6-2.4-3.6-5.7-4.5-8.9c-0.8-2.9-1.1-6-1.8-8.9C5,189.1,4,185.2,3,181.3
			c-0.1-0.5-0.3-1-0.3-1.4c0.2-4.7-0.9-9.4-0.5-14.1c0.3-3.3,0.6-6.6,1.6-9.7c0.6-1.8,1.7-3.1,3.8-2.9c2.1,1.2,1.7,3,1.2,4.8
			c-1.1,4.2-1.9,8.4-1.5,12.7c0.4,4.2,1.1,8.5,1.9,12.7c1.3,6.5,2.2,13.2,4.4,19.5c2.5,6.9,6.7,11.6,14.1,13.2
			c0.7,0.2,1.5,0.5,2.1-0.2c0.5-0.6,0.1-1.2-0.1-1.9c-1.8-5.4-3.6-10.8-5.4-16.2c-0.4-1.3-0.8-2.5-0.7-3.9c-0.1-2.6-0.1-5.3-0.3-7.9
			c-0.5-5.2-0.8-10.4-1.2-15.5c-0.1-1.4,0.3-2,1.7-1.9c5.3,0.3,10.5-0.7,15.8-0.4c0.9,0,1.8,0,2.7-0.1c1.2-0.1,2-0.7,1.9-2.1
			c2.6-0.5,2.5-0.3,4.1,1.6c1.1,1.4,1.1,3,1.5,4.6c0.8,3.5,1.6,6.9,1.2,10.5c-0.2,1.8-0.1,3.5,0.5,5.3c0.5,1.4,0,2-1.5,1.7
			c-1-0.2-2-0.2-2.9-0.2c-6.6-0.3-13.1,0.6-19.6,1.5c-1.1,0.1-1.9,0.5-2.2,1.7c-0.3,1.3,0.6,1.8,1.6,2.2c1.4,0.5,2.6,1.4,3.8,2.2
			c2.2,1.8,4.9,2.2,7.5,2.9c13.7,3.6,27.7,4.4,41.8,3.9c2.4-0.1,2.6-0.3,2.7-2.8c0.3-5.9-0.6-11.9-0.4-17.8c0.1-1.7-0.1-3.6-1.1-5.2
			c0.6-0.3,1.3-0.3,1.9-0.2c3.4,0.6,6.8,1,10.3,0.9c3.7-0.1,7.4-0.3,11.1-0.4c11.6-0.3,23.3,0.2,34.9-1.2c0,6.6,0.1,13.2,0.1,19.8
			c0,1-0.1,2,0,3c0.2,1.6,1.4,2.6,2.8,2.4c5.6-0.7,11.1-1.3,16.6-2.5c4.5-0.9,9-2,13.4-3.6c0.9-0.3,1.8-0.6,2-1.9
			c0.3-2.2,0.4-4.4,0.4-6.7c0-0.8-0.1-1.5-1-1.7c0-1.1,0-2.3,0.2-3.4c0.6-3.9,0.5-7.8,0-11.8c-0.3-2.7-0.3-5.4,0.2-8.1
			c0.3-1.6,1-2.1,2.4-2.1c1.4,1.8,3.4,1,5.1,0.8c3.1-0.4,6.2-0.9,9.4-0.7c1.9,0.1,2,0.1,2.3,2.1c0.2,1.6,0.5,3.1,0.3,4.7
			c-0.6,4.4-0.5,8.9-1.4,13.3c-1.1,5.5-1.6,11.1-2.6,16.6c-0.8,4.4-2,8.7-2.7,13.1c-0.3,1.4-0.8,2.2-2,2.9c-3.1,1.8-6.3,3.3-9.7,4.5
			c-9.1,3.2-18.3,6.2-27.7,8.7c-2,0.5-4,0.9-6.1,1.1c-4.6,0.5-9.2,0.9-13.8,1.4c-1.3,0.2-1.6-0.2-1.6-1.4c0-1.9,0-3.8,0-5.7
			c0-1.1,0.1-2.5-1.5-2.7c-1.1-0.2-1.6,0.8-1.6,2.8c0,0.7,0,1.5,0,2.2c0.1,2.7-0.2,5.4-0.5,8.2c-0.1,1.3-0.6,2-2.1,2.2
			c-1.9,0.2-3.8,0.4-5.7,0.4c-2,0-4-0.1-6,0.1c-5.3,0.7-10.6,0.3-15.9,0.3c-2,0-2.2-0.3-2.3-2.4c-0.1-3.2-0.6-6.4-0.5-9.7
			c0-0.8,0-1.7-0.4-2.4c-0.2-0.5-0.6-0.8-1.1-0.8c-0.6,0-0.9,0.4-1.1,0.9c-0.2,0.6-0.3,1.3-0.3,1.9c-0.2,2.5-0.1,5,0.1,7.5
			c0,0.7,0.1,1.6-1.1,1.4c-4.1-0.4-8.3-0.4-12.3-1.1c-7.8-1.5-15.6-3.1-23.3-4.6c-6.6-1.3-13.1-2.6-19.2-5.6
			c-0.5-0.3-1.1-0.5-1.6-0.7c-4.2-0.9-7.9-2.9-11.2-5.5c-1.4-1.1-2.7-2.2-4.1-3.3C13.7,210.6,13,210.3,12.2,210.9z"/>
		<path class="st1" d="M30.5,196.9c-1.2-0.8-2.4-1.6-3.8-2.2c-0.9-0.4-1.9-0.9-1.6-2.2c0.3-1.1,1.1-1.5,2.2-1.7
			c6.5-0.8,13-1.8,19.6-1.5c1,0,2,0,2.9,0.2c1.5,0.3,2-0.3,1.5-1.7c-0.6-1.7-0.7-3.4-0.5-5.3c0.4-3.6-0.4-7-1.2-10.5
			c-0.4-1.6-0.3-3.2-1.5-4.6c-1.6-2-1.4-2.1-4.1-1.6c-0.6-0.5-1.2-0.8-2-0.6c-1.9,0.5-3.8,0.4-5.7,0.3c-3.6-0.1-7.1-0.1-10.6,0.7
			c-2.6,0.6-4.7-0.2-6.6-2c-0.4-0.3-0.7-0.7-1.1-1c-0.6-0.4-1.2-0.6-1.8-0.1c-0.6,0.5-0.6,1.2-0.2,1.8c0.4,0.6,0.8,1.3,1.4,1.7
			c1.2,1.1,1.6,2.3,1.6,3.9c0.1,7.1,1,14,3.1,20.8c0.3,0.8,0.1,1.9,1.2,2.3c-0.1,1.3,0.2,2.6,0.7,3.9c1.8,5.4,3.6,10.8,5.4,16.2
			c0.2,0.6,0.6,1.2,0.1,1.9c-0.6,0.7-1.3,0.4-2.1,0.2c-7.4-1.6-11.6-6.3-14.1-13.2c-2.3-6.3-3.2-12.9-4.4-19.5
			c-0.8-4.2-1.5-8.4-1.9-12.7c-0.4-4.3,0.4-8.5,1.5-12.7c0.5-1.8,1-3.6-1.2-4.8c0.6-2.3,2.3-3.8,4.8-3.9c6.4-0.2,12.9-0.8,19.3-0.5
			c2.1,0.1,3.9,0.7,5.3,2.2c1.3,1.3,2.6,2.6,3.8,3.9c0.4,0.4,0.9,0.8,1,1.4c0.4,3.5,3.2,4.1,5.8,4.8c4.6,1.2,9.2,0.2,13.7-0.4
			c1.2-0.2,1.9-1,1.9-2.2c0-2.8,0.2-5.6,0.5-8.4c0.3-2.3,0.4-4.6,1-6.8c0.8-2.9,0.5-5.9,0.5-8.9c0-2.7,0.5-3.5,3.1-4.4
			c1.1-0.4,2.1-0.9,3.1-1.5c1-0.6,2.1-1,3.3-1c10-0.7,19.9-1.2,29.9-1.1c2.5,0,4.9,0.4,7.4,0.6c0.6,0,1.3,0.4,1.9,0.7
			c1.3,0.7,2.7,1.2,4.2,1.5c3.7,0.7,6,3.7,5.9,6.9c0,1.2-0.9,2.1-1,3.3c-0.6,0.3-1.1,0.8-1,1.6c-0.3,0.2-0.6,0.4-0.8,0.6
			c-2.3,0-4.5,0.6-6.9,0.1c-5.3-1.1-10.7-1.7-16.2-1.7c-5.2,0-10.4,0.5-15.5,1.2c-1.4,0.2-3.2-0.3-4.4,1.1c-2.5-1.1-3.2-0.8-3.4,1.7
			c-0.4,5.2-0.6,10.5-0.9,15.7c-0.1,1.4,0.2,2.5,1.8,2.7c2,2.8,4.7,4.1,8,3.8c1.3-0.1,2.6-0.3,3.9-0.3c4.4,0.1,8.7-0.3,13.1,0.4
			c2.3,0.4,4.6-0.5,6.9-0.4c4.7,0.2,9.4-0.7,14.1-0.6c0.3,0,0.6-0.1,1-0.2c2.9-0.1,3.4-0.7,2.8-3.4c-0.6-2.4-0.7-4.9-0.6-7.4
			c3.6,2.3,7.7,2.8,11.9,2.5c3.2-0.3,6.4-0.8,9.6-1c1.4-0.1,2.3-1.3,2.4-3c0.1-1.4,0.1-2.8,0-4.2c0-1.1,0.4-1.6,1.5-1.7
			c2.8-0.3,5.5-1,8.3-1.3c1.7-0.2,3.4,0.1,5.1,0.4c6.9,0.9,13.6,2.3,20.2,4.5c3.2,1.1,6,2.7,8.8,4.6c0.7,0.5,1.4,1,1.3,2
			c-5.2-0.2-10.3,1.4-15.5,1.6c-1.4,0-2.1,0.8-2.1,2.2c-1.5-0.1-2.2,0.5-2.4,2.1c-0.5,2.7-0.4,5.4-0.2,8.1c0.4,3.9,0.5,7.8,0,11.8
			c-0.2,1.1-0.1,2.3-0.2,3.4c-1.4,0.4-2,1.3-2,2.7c0,0.6,0,1.2,0,1.7c-0.1,3,0.5,2.7-2.8,3.6c-7.5,2.2-15.1,3.6-22.8,4.5
			c-3.7,0.4-3.7,0.5-3.7-3.2c0-5.7,0-11.4,0-17.1c0-0.9-0.1-1.9-1.1-2.3c-1-0.4-1.5,0.4-1.9,1.1c-11.6,1.3-23.3,0.8-34.9,1.2
			c-3.7,0.1-7.4,0.3-11.1,0.4c-3.5,0.1-6.9-0.3-10.3-0.9c-0.7-0.1-1.3-0.1-1.9,0.2c-0.2,0-0.4-0.1-0.5-0.1c-0.3-0.1-0.5,0-0.7,0.3
			c-1.2,1.2-1.2,2.8-1,4.2c1.1,5.7-0.1,11.5,0.7,17.3c0.1,1.1-0.5,1.7-1.7,1.4c-1.1-0.3-2.1-0.3-3.2-0.2c-4.4,0.5-8.7,0.1-13.1-0.5
			c-3-0.4-6-0.9-9.1-1.1c-6.3-0.4-12.5-1.1-18.7-2.2C32.7,196.9,31.6,196.8,30.5,196.9z"/>
		<path class="st0" d="M162.2,259.8c-0.1,0.2-0.1,0.3-0.2,0.5l-0.1,0c-0.9,1.7-2.5,2.7-4.1,3.5c-3.6,1.8-7.2,3.6-11.2,4.6
			c-4.2,1.1-8,3.5-12.2,4.9c-7.8,2.6-15.5,5-23.9,4.8c-3.4-0.1-6.7,0.6-10.1,0.8c-5.2,0.2-10.5,1.1-15.8,0.3
			c-4.4-0.6-8.9-0.8-13.2-1.6c-6.5-1.3-13.1-2.5-19.4-5c-0.9-0.4-1.9-0.6-2.3-1.7c2.8,0.5,5.6,1.4,8.3,2.2c1.8,0.5,3.7,1,5.3-0.6
			c2.7,0.5,5.4,0.9,8,1.5c2.3,0.5,4.2-0.2,5.9-1.8c0.8-0.8,1.1-1.7,0.5-2.7c-1.8-3.1-2-6.6-2.7-10c-0.7-3.4-1.1-6.8-2.4-10.1
			c-1.2-2.9-2-5.7-1.3-9c-3.4-0.5-6.6-1-9.8-1.6c-7.1-1.2-14.3-2.3-21.1-4.9c-1-0.4-2.4-1.4-3.2-0.7c-1.1,1,0.2,2.3,0.7,3.3
			c1.4,3.1,1.8,6.6,3.4,9.6c1.2,2.3,2.1,4.7,3.1,7c1.5,3.5,2.5,7.3,4.6,10.7c1.2,1.8,3.1,2.9,4.3,4.7c-2.4-0.2-4.3-1.2-6-2.9
			c-1.6-1.6-2.4-1.3-3,0.9c-0.7-0.4-0.8-1.2-1.1-1.9c-2.6-8.4-5.9-16.5-10.2-24.1c-2.1-3.7-3.5-7.8-5.2-11.8
			c-0.6-1.3-1.1-2.6-1.8-3.8c-0.5-1-0.9-2-0.9-3.1c1.6,0.2,2.9,1.1,4.3,1.8c0.7,0.3,1.3,0.7,2,0.9c4.6,1.3,9.2,2.5,13.9,3.8
			c2.8,0.8,5.6,1.5,8.4,2c6.6,1,13.2,2.1,19.8,3.2c3.9,0.7,7.8,1.5,11.7,2.1c1.1,0.2,2,0.2,2.7,1.4c0.5,0.8,1.4,1.1,2.3,1.2
			c1.6,0.1,3.3,0.3,4.9,0.4c6.3,0.5,12.6-0.2,18.8-0.3c2.6,0,5.1-0.2,7.7-0.5c1.6-0.2,2.8-0.9,3-2.5c0.3-2.1,1.7-2.5,3.3-2.5
			c5.4,0,10.6-1.6,15.9-2.5c7.3-1.3,14.6-2.8,21.6-5.5c2.3-0.9,4.7-1.7,7.1-2.2c2-0.4,3.8-1,5.6-1.9c-0.7,3.8-2.7,7.1-3.9,10.7
			c-0.5,1.6-1.1,3.1-1.7,4.6c-1.6-0.6-2.2,0.4-2.7,1.7c-1.6,4.5-3.3,8.9-4.9,13.4C164.2,253.9,162.9,256.7,162.2,259.8z"/>
		<path class="st2" d="M178.6,220.6c-1.8,0.9-3.7,1.5-5.6,1.9c-2.4,0.5-4.8,1.3-7.1,2.2c-7,2.7-14.2,4.3-21.6,5.5
			c-5.3,0.9-10.5,2.5-15.9,2.5c-1.6,0-3,0.4-3.3,2.5c-0.2,1.5-1.4,2.3-3,2.5c-2.6,0.3-5.1,0.5-7.7,0.5c-6.3,0.1-12.6,0.8-18.8,0.3
			c-1.6-0.1-3.3-0.3-4.9-0.4c-1-0.1-1.9-0.4-2.3-1.2c-0.6-1.1-1.5-1.2-2.7-1.4c-3.9-0.6-7.8-1.4-11.7-2.1
			c-6.6-1.1-13.2-2.2-19.8-3.2c-2.9-0.4-5.6-1.2-8.4-2c-4.6-1.3-9.2-2.5-13.9-3.8c-0.7-0.2-1.3-0.6-2-0.9c-1.4-0.7-2.7-1.6-4.3-1.8
			c-3.6-1.8-7.2-3.6-10.2-6.4c-1.4-1.2-3.1-2.3-3.1-4.5c0.8-0.6,1.5-0.3,2.2,0.3c1.3,1.1,2.7,2.2,4.1,3.3c3.4,2.6,7,4.6,11.2,5.5
			c0.6,0.1,1.1,0.4,1.6,0.7c6.1,3,12.7,4.3,19.2,5.6c7.8,1.5,15.6,3.1,23.3,4.6c4.1,0.8,8.2,0.7,12.3,1.1c1.2,0.1,1.1-0.7,1.1-1.4
			c-0.1-2.5-0.2-5-0.1-7.5c0-0.7,0.1-1.3,0.3-1.9c0.1-0.5,0.5-0.9,1.1-0.9c0.6,0,0.9,0.3,1.1,0.8c0.4,0.8,0.4,1.6,0.4,2.4
			c-0.1,3.2,0.3,6.4,0.5,9.7c0.1,2.1,0.3,2.4,2.3,2.4c5.3,0,10.6,0.4,15.9-0.3c2-0.3,4-0.1,6-0.1c1.9,0,3.8-0.2,5.7-0.4
			c1.5-0.2,2-0.9,2.1-2.2c0.3-2.7,0.6-5.4,0.5-8.2c0-0.7,0-1.5,0-2.2c0-2.1,0.5-3,1.6-2.8c1.6,0.2,1.5,1.6,1.5,2.7
			c0,1.9,0,3.8,0,5.7c0,1.2,0.4,1.6,1.6,1.4c4.6-0.5,9.2-0.9,13.8-1.4c2-0.2,4.1-0.6,6.1-1.1c9.3-2.6,18.5-5.6,27.7-8.7
			c3.4-1.2,6.6-2.7,9.7-4.5c1.1-0.7,1.7-1.5,2-2.9c0.8-4.4,2-8.7,2.7-13.1c1-5.5,1.5-11.1,2.6-16.6c0.9-4.4,0.8-8.9,1.4-13.3
			c0.2-1.6-0.1-3.1-0.3-4.7c-0.3-2-0.3-2-2.3-2.1c-3.2-0.1-6.3,0.4-9.4,0.7c-1.7,0.2-3.6,1-5.1-0.8c0-1.4,0.7-2.2,2.1-2.2
			c5.2-0.1,10.2-1.8,15.5-1.6l0-0.1c0.2,0.5,0.6,0.6,1,0.8c1.7,1.9,1.8,4.2,1.9,6.5c0.1,9.8-0.6,19.5-2.6,29.1
			c-1.4,6.9-2.5,13.8-4.4,20.6c-0.4,1.5-1.3,2.5-2.8,3.2C184.2,218.1,181.2,219,178.6,220.6z"/>
		<path class="st2" d="M121.1,141.4c0.3-0.2,0.6-0.4,0.8-0.6c0.5,0,0.9,0.1,1.4,0.1c0.8,0.8,1,1.8,1.1,2.9c0.4,3.4,0.2,6.9,0.4,10.3
			c-0.1,2.5,0,5,0.6,7.4c0.6,2.7,0.2,3.3-2.8,3.4c-0.4-0.9-1.2-1.5-1.2-2.7C121.7,155.3,120.7,148.3,121.1,141.4z"/>
		<path class="st2" d="M162.2,259.8c0.6-3.1,2-5.9,3-8.8c1.6-4.5,3.3-8.9,4.9-13.4c0.5-1.3,1.1-2.2,2.7-1.7c0.5,0.8,0.5,1.5,0.2,2.4
			c-1.9,4.8-3.3,9.7-5.7,14.3C166,255.2,164.6,257.8,162.2,259.8z"/>
		<path class="st2" d="M44.5,266.5c0.5-2.3,1.3-2.6,3-0.9c1.7,1.7,3.6,2.7,6,2.9c2.5,1,5.1,1.9,7.7,2.6c0.9,0.2,2,0.3,2.4,1.4
			c-1.6,1.6-3.5,1.1-5.3,0.6c-2.8-0.8-5.5-1.7-8.3-2.2C47.8,269.7,45.9,268.4,44.5,266.5z"/>
		<path class="st0" d="M123.4,140.9c-0.5,0-0.9-0.1-1.4-0.1c-0.1-0.8,0.4-1.2,1-1.6C123.5,139.7,123.5,140.3,123.4,140.9z"/>
		<path class="st3" d="M195,157.4c-0.4-0.2-0.9-0.3-1-0.8C194.6,156.7,194.9,156.9,195,157.4z"/>
		<path class="st2" d="M161.9,260.3L161.9,260.3L161.9,260.3z"/>
		<path class="st2" d="M30.5,196.9c1.1-0.2,2.1-0.1,3.2,0.1c6.2,1.1,12.4,1.8,18.7,2.2c3,0.2,6.1,0.7,9.1,1.1
			c4.3,0.6,8.7,1,13.1,0.5c1.1-0.1,2.1-0.1,3.2,0.2c1.2,0.3,1.8-0.3,1.7-1.4c-0.8-5.7,0.4-11.5-0.7-17.3c-0.3-1.4-0.3-3,1-4.2
			c0.2-0.1,0.4-0.2,0.7-0.3c0.2,0,0.4,0.1,0.5,0.1c1.1,1.6,1.2,3.5,1.1,5.2c-0.2,6,0.8,11.9,0.4,17.8c-0.1,2.5-0.3,2.7-2.7,2.8
			c-14.1,0.5-28.1-0.3-41.8-3.9C35.5,199.1,32.7,198.7,30.5,196.9z"/>
		<path class="st2" d="M139.3,177c0.5-0.7,0.9-1.5,1.9-1.1c1,0.4,1.1,1.4,1.1,2.3c0,5.7,0,11.4,0,17.1c0,3.7,0,3.7,3.7,3.2
			c7.7-0.9,15.4-2.3,22.8-4.5c3.3-1,2.7-0.6,2.8-3.6c0-0.6,0-1.2,0-1.7c0-1.4,0.6-2.4,2-2.7c0.9,0.3,1,0.9,1,1.7
			c0,2.2-0.2,4.4-0.4,6.7c-0.1,1.3-1.1,1.6-2,1.9c-4.4,1.6-8.9,2.6-13.4,3.6c-5.5,1.1-11.1,1.7-16.6,2.5c-1.4,0.2-2.7-0.9-2.8-2.4
			c-0.1-1,0-2,0-3C139.3,190.2,139.3,183.6,139.3,177z"/>
		<path class="st2" d="M23.5,193.8c-1.1-0.4-0.9-1.5-1.2-2.3c-2.1-6.8-3-13.7-3.1-20.8c0-1.6-0.4-2.9-1.6-3.9
			c-0.6-0.5-1-1.1-1.4-1.7c-0.4-0.6-0.4-1.3,0.2-1.8c0.6-0.5,1.2-0.4,1.8,0.1c0.4,0.3,0.7,0.7,1.1,1c1.8,1.8,4,2.6,6.6,2
			c3.5-0.8,7-0.8,10.6-0.7c1.9,0,3.8,0.2,5.7-0.3c0.8-0.2,1.5,0.1,2,0.6c0.1,1.4-0.7,2-1.9,2.1c-0.9,0.1-1.8,0.1-2.7,0.1
			c-5.3-0.3-10.5,0.7-15.8,0.4c-1.5-0.1-1.9,0.6-1.7,1.9c0.4,5.2,0.6,10.4,1.2,15.5C23.5,188.6,23.4,191.2,23.5,193.8z"/>
		<path class="st0" d="M121.1,141.4c-0.4,7,0.6,13.9,0.4,20.8c0,1.1,0.7,1.8,1.2,2.7c-0.3,0.1-0.6,0.2-1,0.2
			c-4.7-0.2-9.4,0.7-14.1,0.6c-2.3-0.1-4.6,0.8-6.9,0.4c-4.4-0.7-8.7-0.3-13.1-0.4c-1.3,0-2.6,0.2-3.9,0.3c-3.3,0.3-6-1-8-3.8
			c1.1-0.3,1.5-1.1,1.5-2.2c0.4-6,0.8-11.9,0.9-17.9c1.2-1.4,3-0.9,4.4-1.1c5.2-0.6,10.3-1.2,15.5-1.2c5.5,0,10.9,0.7,16.2,1.7
			C116.7,142,118.9,141.4,121.1,141.4z"/>
		<path class="st2" d="M78.2,142c-0.1,6-0.5,12-0.9,17.9c-0.1,1.1-0.4,1.9-1.5,2.2c-1.6-0.2-1.9-1.3-1.8-2.7
			c0.3-5.2,0.5-10.5,0.9-15.7C75,141.2,75.7,140.9,78.2,142z"/>
		<path class="st0" d="M80.4,177.8c-0.2,0.1-0.4,0.2-0.7,0.3C79.9,177.7,80.1,177.7,80.4,177.8z"/>
		<path class="st1" d="M63.5,272.4c-0.5-1.1-1.5-1.2-2.4-1.4c-2.6-0.7-5.2-1.6-7.7-2.6c-1.2-1.8-3.1-2.9-4.3-4.7
			c-2.1-3.3-3.1-7.1-4.6-10.7c-1-2.3-1.9-4.7-3.1-7c-1.6-3-2-6.5-3.4-9.6c-0.5-1-1.8-2.3-0.7-3.3c0.8-0.7,2.2,0.3,3.2,0.7
			c6.8,2.5,14,3.6,21.1,4.9c3.2,0.5,6.5,1,9.8,1.6c-0.7,3.3,0.2,6.1,1.3,9c1.3,3.2,1.7,6.7,2.4,10.1c0.7,3.4,0.9,6.9,2.7,10
			c0.6,1,0.3,1.9-0.5,2.7c-1.7,1.6-3.6,2.3-5.9,1.8C68.9,273.3,66.2,272.9,63.5,272.4z"/>
	</g>
</g>
</svg>
