<?xml version="1.0" encoding="utf-8"?>
<!-- Generator: Adobe Illustrator 24.2.0, SVG Export Plug-In . SVG Version: 6.00 Build 0)  -->
<svg version="1.1" id="Layer_1" xmlns="http://www.w3.org/2000/svg" xmlns:xlink="http://www.w3.org/1999/xlink" x="0px" y="0px"
	 viewBox="0 0 100 100" style="enable-background:new 0 0 100 100;" xml:space="preserve">
<style type="text/css">
	.st0{fill:#575B68;}
	.st1{fill:#F88E77;}
</style>
<path class="st0" d="M27.7,50.8v-16h48v14.7c0,9.1-5,17.4-13.1,21.7L62,71.4C54.9,75.2,46.3,75,39.3,71
	C32.1,66.8,27.7,59.1,27.7,50.8z"/>
<path class="st1" d="M35.1,56.1v-1.4c0-0.9,0.7-1.8,1.6-2l2.4-0.5c8.1-1.8,16.5-1.8,24.6,0l2.4,0.5c0.9,0.2,1.5,1,1.5,1.9v0.6
	c0,5.4-3.5,10.1-8.7,11.6l-0.6,0.2c-5,1.5-10.4,1.4-15.4-0.2C38.2,65.4,35.1,61,35.1,56.1z"/>
</svg>
