<?xml version="1.0" encoding="UTF-8"?>
<svg width="998px" height="445px" viewBox="0 0 998 445" version="1.1" xmlns="http://www.w3.org/2000/svg" xmlns:xlink="http://www.w3.org/1999/xlink">
    <!-- Generator: Sketch 61.2 (89653) - https://sketch.com -->
    <title>Group 41 Copy</title>
    <desc>Created with Sketch.</desc>
    <g id="Website" stroke="none" stroke-width="1" fill="none" fill-rule="evenodd">
        <g id="Group-41-Copy">
            <path d="M230.801398,136.760717 C230.615986,136.719532 230.429114,136.679441 230.242606,136.638256 C225.010548,144.91422 219.777395,153.190548 214.579645,161.412206 C218.67733,170.924079 222.686689,180.231851 226.696048,189.540715 C226.869416,189.482765 227.042784,189.425908 227.216152,189.369051 C228.411112,171.832697 229.606803,154.296342 230.801398,136.760717 M445.380029,71.0424862 C445.529673,68.9832447 445.777863,66.9240033 445.818011,64.8611171 C446.066201,52.9248061 446.277892,40.9848503 446.467684,29.0485392 C446.526082,25.2325644 446.474984,20.5418675 446.474984,16.3687144 C420.104826,16.6639331 393.895261,16.9555071 367.459405,17.2507258 C367.36086,19.032972 367.258664,20.4871973 367.203916,21.9450674 C365.879021,56.3544454 364.546461,91.6363585 363.258794,126.046465 C363.045643,131.746737 363.044183,137.45357 362.944177,143.157486 C362.819718,143.733345 362.605106,144.306288 362.585032,144.886156 C362.042665,160.531288 361.520736,176.177514 360.995158,191.82374 C360.588565,200.275377 359.942177,208.724099 359.835236,217.180109 C359.690702,228.595232 352.807452,232.820139 345.556297,235.0033 C333.764,238.554671 318.345214,232.610206 320.48001,215.586293 C321.113259,210.534773 320.843535,205.371362 320.986245,200.258612 C321.534817,188.968501 322.082294,177.678391 322.629771,166.388646 C322.807519,165.024079 323.079068,163.664615 323.148415,162.294946 C323.486391,155.597127 323.75429,148.895663 324.075112,142.197114 C325.982888,102.301042 327.899423,59.78044 329.802819,19.885826 C329.861582,18.6502811 329.810849,17.4110915 329.810849,15.9386428 C303.954225,16.2447955 278.442511,16.5473035 252.852325,16.8498116 C252.74794,17.7391123 252.670928,18.2165647 252.638444,18.6903725 C251.116092,41.4222113 249.59374,66.7709269 248.080878,89.5005789 C246.534802,112.721533 244.962447,135.941029 243.476594,159.164899 C242.708665,171.166086 242.10498,183.176019 241.426838,195.182673 C239.8293,206.016105 239.251163,216.820744 242.34587,227.521146 C243.164166,229.929183 243.754347,232.444009 244.837987,234.725211 C250.427366,246.49897 259.87135,254.559533 270.780383,261.154208 C287.195943,271.07793 305.15247,275.757693 324.173293,277.033693 C348.410114,278.659947 372.087414,276.718064 394.789474,267.239722 C409.304923,261.177899 421.634113,252.272135 431.514253,240.052268 C436.288256,234.145343 439.872407,227.628664 440.77757,219.915438 C441.120656,219.002082 441.664483,218.111688 441.777629,217.171362 C442.434601,211.712368 443.361663,206.251186 443.507657,200.772146 C443.901841,186.006838 443.92009,171.230961 444.135431,156.460551 C444.40187,138.033437 444.712107,119.606689 445.011395,101.179576 C445.025994,100.294649 445.13184,99.4093572 445.139139,98.5240656 C445.226736,89.3631747 445.303383,80.2030126 445.380029,71.0424862 M718.206234,35.0403852 C717.965344,35.7875436 717.666056,36.5164786 717.487214,37.2782157 C714.388492,50.3042846 711.220423,63.3194195 708.242146,76.3746459 C704.417105,93.1707668 700.749007,110.002241 697.011561,126.818772 C694.657409,136.391511 692.182811,145.937644 689.960053,155.540999 C682.247923,188.877749 674.623388,222.235274 666.962356,255.584051 C665.268826,262.957958 665.268826,270.365031 666.319982,277.91206 L746.919595,277.91206 C748.379535,261.887152 749.817575,246.03974 751.259265,230.196702 L791.24701,230.196702 C795.239945,246.227806 799.21463,262.167792 803.200265,278.170832 L880.197477,278.170832 C881.197536,267.352343 878.354304,257.456685 874.989143,247.594194 C858.108592,198.130486 841.337536,148.629966 824.493483,99.1531365 C821.413011,90.1023148 818.190194,81.1003317 815.033075,72.0775739 C811.879606,62.4374082 808.780884,52.7790191 805.554418,43.164366 C803.426556,36.826276 801.119851,30.5501454 798.897093,24.2448574 C797.736441,20.6111163 796.575789,16.9773752 795.568431,13.8283759 L722.753946,13.8283759 C721.169911,21.2234217 719.688073,28.1337258 718.206234,35.0403852 M577.876844,47.4942401 C577.876844,49.3821818 577.880494,51.2701235 577.884144,53.1580653 C577.829396,54.630514 577.708951,56.1066074 577.72355,57.5827009 C577.920642,74.9386439 578.132333,92.2960447 578.340375,109.654175 C578.351324,110.685253 578.340375,111.717425 578.340375,113.625413 C577.49361,112.440164 577.139574,112.0254 576.873135,111.561069 C571.179371,101.635525 565.525755,91.6881129 559.802792,81.7775123 C555.123686,73.6702969 550.375232,65.6046309 545.655978,57.5170967 C545.331141,56.8063851 545.061052,56.066516 544.677818,55.3886064 C538.856309,45.1033332 533.016551,34.8253493 527.180443,24.5437208 C525.632907,21.8211484 524.078071,19.1022208 522.877271,16.9883092 L459.085212,16.9883092 C459.085212,21.0193199 459.110761,24.4562486 459.081562,27.8931772 C458.961117,41.6773386 458.822423,55.4651446 458.691028,69.249306 C458.603432,70.0292665 458.453788,70.8092269 458.442839,71.5891874 C458.077854,92.0667947 457.723818,112.545131 457.380733,133.023103 C457.001148,155.568334 456.606965,178.114294 456.278478,200.660984 C456.158033,208.929658 456.209131,217.200155 456.183582,225.469923 C456.114235,225.957216 455.99744,226.442687 455.98649,226.929615 C455.698152,243.010651 455.413464,259.090593 455.145906,275.170535 C455.132426,275.835324 455.26382,276.503029 455.355066,277.437159 L529.42145,277.437159 C529.476198,276.654283 529.552845,276.070041 529.552845,275.486529 C529.505396,252.29947 529.450649,229.112047 529.381302,205.924988 C529.381302,205.047715 529.213409,204.170441 529.122162,203.293168 C529.224358,201.727416 529.42145,200.162392 529.41415,198.597369 C529.374002,188.148814 529.290055,177.69953 529.220708,167.250976 C529.217058,166.343087 529.220708,165.435927 529.220708,164.528768 C529.465248,164.486854 529.709788,164.44494 529.950678,164.403755 C531.436167,167.156579 532.925305,169.908308 534.407144,172.661131 C538.571621,180.378002 542.732449,188.094873 546.896926,195.81065 C547.152416,196.447375 547.356807,197.112164 547.670694,197.718273 C560.226175,221.980511 572.792604,246.239104 585.362684,270.493688 C586.625532,272.927967 587.939477,275.335275 589.220574,277.738938 L653.217025,277.738938 C653.217025,276.669226 653.238924,275.795962 653.213375,274.924884 C652.092871,236.277843 650.972368,197.630072 649.826315,158.98303 C649.70952,155.046052 649.428481,151.113083 649.22409,147.178656 C649.267888,145.901562 649.384683,144.621917 649.348185,143.347374 C649.016049,132.613806 648.614565,121.882789 648.315278,111.147033 C647.804299,93.0238864 647.373617,74.8985524 646.862638,56.773583 C646.742193,52.5457598 646.424656,48.3215814 646.202015,44.0974029 C645.968425,34.4827499 645.734834,24.8680969 645.512194,15.5778199 L577.825746,15.5778199 L577.825746,42.705137 C577.840345,44.3015047 577.858595,45.8978724 577.876844,47.4942401 M871.44149,14.6156257 C871.850273,19.9769428 872.211608,25.3419046 872.686088,30.6959324 C873.105821,35.4522335 873.653298,40.2012452 874.142378,44.9502569 C874.09858,46.025436 873.945286,47.1115492 874.029233,48.1757944 C874.700805,56.6314407 875.412525,65.087087 876.127896,73.5390886 C879.190119,109.709209 882.263292,145.877872 885.325515,182.048721 C887.968006,213.305091 890.592247,244.564011 893.238387,275.819652 C893.311384,276.656834 893.552274,277.479802 893.716518,278.329375 L978.393012,278.329375 C969.133345,189.298345 959.902877,100.544674 950.65781,11.6853069 L946.329089,11.6853069 C945.942205,11.6306368 945.551671,11.5249412 945.164787,11.528494 C926.7513,11.718109 908.334162,11.9185661 889.920675,12.1336019 C889.238153,12.1408913 888.562931,12.3158357 887.880409,12.4105972 L871.178701,12.4105972 C871.288196,13.3327001 871.364843,13.9741629 871.44149,14.6156257 M198.27431,276.787313 L230.080553,276.787313 C230.223262,276.405716 230.369621,276.143299 230.417069,275.864482 C230.51525,275.28352 230.573648,274.693812 230.627301,274.10629 C231.256899,267.222228 230.487146,260.732519 227.174908,254.377664 C223.731641,247.770961 221.2158,240.682068 218.293731,233.804202 C214.347515,224.540166 210.401298,215.27686 206.455811,206.01246 C200.472979,191.740641 194.492702,177.467729 188.508409,163.19591 C184.165089,152.838108 179.815199,142.482492 175.499253,132.198313 C175.899641,131.49161 176.16608,130.965683 176.481427,130.472559 C184.068003,118.577068 191.658959,106.685222 199.252834,94.7951985 C212.421124,74.1769068 225.593064,53.5589795 238.762449,32.9410523 C241.321723,28.9319096 241.458592,20.9646498 241.531224,16.6529991 L166.978681,16.6529991 C154.105664,39.1442894 141.448718,64.7554215 128.791042,86.8702169 C128.556356,86.7958655 128.321671,86.7215141 128.087716,86.6460693 C130.156085,64.7809343 132.22409,38.542918 134.261435,17.0138219 L61.6163029,17.0138219 C61.4049766,18.023397 61.2684723,16.5400142 61.2148195,17.0138219 C58.0536854,44.9429675 54.9002159,79.1919798 51.7412717,107.122583 C48.063319,139.658598 44.3631022,172.193155 40.7077785,204.732086 C39.585815,214.722869 38.5828365,224.728232 37.5236503,234.727033 C37.3798463,235.687405 37.2364072,236.647777 37.0926032,237.608513 C36.6345472,241.972283 36.1764911,246.336417 35.7173401,250.700187 C35.1866521,255.123 34.6541391,259.54472 34.1223562,263.96644 C34.0504541,264.353869 33.9540981,264.738017 33.9102999,265.127998 C29.8564128,300.974106 25.8032556,336.820215 21.7745524,372.669969 C21.6800213,373.517356 21.8683535,374.396452 21.9245612,375.261697 C23.4888864,374.095766 24.4498916,372.864959 25.2707426,371.548502 C36.7973304,353.056879 48.3191734,334.562704 59.8099927,316.049941 C64.5909297,308.348742 69.2966799,300.600527 74.0345487,292.872358 C80.0962178,282.849866 86.1578868,272.828103 92.2195558,262.805611 C93.1674216,261.681593 94.2579964,260.648692 95.041254,259.421165 C100.92335,250.202688 106.774788,240.96453 112.549944,231.680449 C113.360211,230.377842 114.038353,228.821931 114.201136,227.320689 C114.921981,220.669521 115.43369,213.995392 116.020585,207.33001 C116.846546,199.381338 117.672507,191.432666 118.498468,183.483994 C120.157689,185.47508 121.279653,187.597739 122.241753,189.79074 C124.682772,195.355795 127.052254,200.953287 129.449839,206.537293 C129.690729,207.483087 129.831979,208.468607 130.188204,209.368842 C133.66578,218.139752 137.156495,226.905196 140.687724,235.654239 C145.431798,247.40868 150.215655,259.146721 154.981627,270.891687 C155.441508,272.864914 155.900659,274.839234 156.392659,276.956062 L191.612606,276.956062 C192.459006,276.891187 193.305041,276.827405 194.152171,276.76253 C195.525609,276.770548 196.900142,276.778566 198.27431,276.787313 M998,0.0478591878 C997.010891,0.897068494 976.732331,21.6024679 967.377768,30.9328363 C976.717731,117.654236 986.064994,204.479874 995.445106,291.595264 C989.236713,294.282483 983.03197,296.985374 976.812627,299.655099 C970.567736,302.335028 964.319194,305.014593 958.041454,307.611424 C956.800506,308.12423 955.406263,308.532434 954.085018,308.525509 C943.628201,308.471203 933.171384,308.217534 922.714567,308.191292 C899.892062,308.133706 877.069557,308.198581 854.247052,308.166873 C826.289209,308.128604 798.335016,308.04186 770.377174,307.976985 C769.50121,307.975527 768.621597,307.976985 767.56679,307.976985 C765.716317,300.559342 763.905992,293.300243 762.092017,286.04005 C762.394954,290.0645 760.048102,292.224335 757.266917,294.352461 C752.186327,298.2406 747.321079,302.414847 742.229539,306.292416 C741.021439,307.213426 739.273162,307.90883 737.773074,307.907007 C703.110459,307.865094 668.447844,307.710195 633.781579,307.582631 C614.521327,307.510831 595.261074,307.450694 575.997172,307.385819 C574.916816,307.381445 573.836461,307.38509 572.697708,307.38509 C563.416143,289.490828 554.185675,271.690235 544.612121,253.226675 C543.637611,271.77224 547.05022,289.921265 540.454943,307.238939 L444.540564,307.238939 C440.624276,296.891706 439.08039,286.5124 440.507481,275.03058 C438.777453,276.462573 437.576652,277.262214 436.616742,278.283817 C425.302211,290.290106 410.494774,295.976892 395.326002,300.871691 C382.631827,304.969035 369.569018,307.080395 356.190497,307.678122 C346.576795,308.107465 337.192669,306.786634 327.731165,305.673186 C315.329344,304.2124 303.34981,301.373927 291.948047,296.165687 C282.463184,291.833261 273.710482,286.433675 265.983752,279.41476 C265.560734,279.030975 265.099758,278.689834 264.012833,277.805271 C266.257855,287.722797 264.019768,296.83412 263.460246,306.397383 L260.562266,306.397383 C243.172926,306.397383 225.783221,306.41998 208.394246,306.388636 C197.233738,306.36859 186.067025,306.46809 174.920387,306.049317 C172.348338,305.952004 169.707308,304.18871 167.342206,302.782959 C160.71116,298.842336 154.154572,294.770505 147.699814,290.549242 C146.449741,289.731377 145.488005,288.123711 144.930674,286.67313 C143.811265,283.765773 143.063411,280.714815 141.953492,277.026768 C139.555176,280.819782 137.467463,284.060627 135.438876,287.33719 C109.76073,328.790996 84.0924373,370.250269 58.4204952,411.70772 C52.144215,421.842468 39.0040291,443.523911 38.7113112,444.231707 C36.9323748,444.231707 27.5121148,443.150697 24.561942,442.759623 C16.0424647,441.630138 8.59494804,440.57792 0.0692660212,439.495088 C0.0692660212,439.100734 -0.0865825264,435.7531 0.0692660212,434.439194 C2.27413974,415.888891 4.42791557,397.333486 6.58716617,378.77808 C10.7472639,343.016892 14.9194062,307.258255 19.053955,271.495245 C21.9333208,246.584619 24.7207104,221.663789 27.6172305,196.756079 C31.4568715,163.74334 35.382649,130.739349 39.2325096,97.7273396 C42.1031157,73.1126616 44.9072947,41.6336025 47.7541768,17.0138219 C48.2472714,12.7531967 48.8078882,7.96409358 49.3455109,3.64150887 C82.7514828,3.1677011 115.802324,4.11531664 148.836012,3.64150887 C150.667506,6.19278147 152.366146,14.5354429 154.264067,17.181477 C155.918179,14.4880621 157.394178,6.11988796 158.914705,3.64150887 C220.695697,2.93079722 282.359894,4.3558652 344.150375,3.64150887 C346.959664,12.8370242 349.697781,25.6371233 352.436992,34.6066688 C352.570942,34.5629327 352.704161,34.5228413 352.836286,34.4827499 C353.249084,25.4694683 353.660787,12.862537 354.081979,3.64150887 C413.462101,2.94173125 472.483807,4.3412865 531.731804,3.64150887 C540.137406,18.2894582 548.546658,34.4426584 557.007008,49.17808 C558.992526,34.3150948 560.941545,18.5008494 562.923413,3.64150887 C595.231875,3.24059461 627.149804,4.04242314 659.286723,3.64150887 C661.170045,56.8829233 663.038768,109.702284 664.91114,162.523832 C666.582771,157.887805 667.703275,153.220434 668.79458,148.546867 C674.634338,123.561161 680.452197,98.570353 686.317504,73.5901141 C688.762903,63.1590538 690.460083,52.454643 694.007736,42.4062736 C698.716041,29.0813413 704.902535,16.2775976 710.519652,3.09116293 C742.576275,2.75949749 774.512453,2.42783205 806.517978,2.09252194 C813.919871,23.6617094 821.230519,44.9575462 828.537516,66.253383 C828.584964,59.3394343 828.019237,52.60043 827.395113,45.8614256 C827.103125,42.6905583 827.267369,39.9096711 829.486477,37.0923373 C834.359025,30.9073236 838.720594,24.3213956 843.308454,17.910412 C847.253941,12.3923739 851.228627,6.89255909 855.477051,0.984540698 C860.878827,0.984540698 866.393749,1.03192147 871.90867,0.977251347 C891.063077,0.791372915 910.217484,0.536245656 929.371891,0.372235275 C946.55538,0.222803594 989.838938,-0.127085219 998,0.0478591878" id="Fill-1" fill="#000000"></path>
            <path d="M715.85818,128.984099 C715.81073,129.480622 715.75963,129.977146 715.712179,130.472574 C717.106489,130.893579 718.50445,131.315679 720.351363,131.873492 L720.351363,126.913367 C718.5738,127.732029 717.21599,128.358064 715.85818,128.984099 M715.942131,138.237088 C712.036603,133.882934 702.736336,134.758507 699.863765,139.646762 C698.816207,141.42673 699.053459,143.066971 700.878472,144.254833 C706.07611,147.638925 714.41277,144.374859 715.942131,138.237088 M814.573143,71.8073171 C817.730416,80.838859 820.953389,89.8496061 824.034011,98.9088746 C840.878883,148.434238 857.650754,197.982949 874.532125,247.494814 C877.89745,257.366906 880.74082,267.272198 879.740713,278.10122 L802.739757,278.10122 C798.753929,262.0826 794.77905,246.127095 790.785921,230.080384 L750.796233,230.080384 C749.354472,245.938846 747.916362,261.801687 746.456351,277.842196 L665.85282,277.842196 C664.801612,270.287819 664.801612,262.87317 666.495224,255.492084 C674.15663,222.11084 681.781535,188.720839 689.49404,155.351999 C691.716906,145.73893 694.191624,136.183868 696.545891,126.602539 C714.102518,121.009447 731.403643,114.735962 748.179164,107.015227 C741.839068,108.933463 735.498972,110.851699 729.158876,112.769205 C729.082226,112.5328 729.001925,112.296395 728.925275,112.05999 C731.312392,110.914084 733.684909,109.749571 736.082976,108.625188 C762.242715,96.3489162 788.409754,84.0777518 814.573143,71.8073171" id="Fill-2" fill="#FEFEFE"></path>
            <path d="M146.813229,176.218163 C146.776382,176.515194 146.738806,176.812954 146.70196,177.109619 L162.488319,180.638951 C159.876594,175.854721 151.441297,173.88425 146.813229,176.218163 M54.5685336,272.962082 C54.65536,269.833047 51.6773592,267.349524 48.0299194,267.318872 C46.2426811,267.304641 44.957431,267.962559 44.8516341,269.9874 C44.6896554,273.090892 47.6191355,276.166651 50.7868411,276.069587 C52.8812552,276.004635 54.3171747,274.986193 54.5685336,272.962082 M35.8702056,250.757064 C36.3287805,246.388092 36.7866258,242.018755 37.2437414,237.650513 C38.4049538,237.797569 39.5752866,238.107735 40.7266489,238.049716 C42.6590842,237.951922 43.6145398,236.979823 42.6809733,234.379531 C41.0735898,234.502868 39.3739076,234.633503 37.6753199,234.764138 C38.733289,224.753051 39.7365357,214.736856 40.857983,204.733067 C44.5119895,172.155709 48.210139,139.583095 51.8867642,107.008292 C55.0438901,79.0440255 58.1951789,44.7541826 61.3559529,16.7917408 C61.4092162,16.3210172 61.5460226,17.8025194 61.7568868,16.7917408 L134.367864,16.7917408 C132.332185,38.3465032 130.265132,64.6157996 128.197714,86.5073665 C128.431562,86.5818065 128.666139,86.6562465 128.901082,86.7317813 C141.552933,64.5902565 154.203691,38.9485915 167.071149,16.4304878 L241.589024,16.4304878 C241.516426,20.7472787 241.379984,28.7240369 238.821523,32.7379591 C225.658198,53.3804664 212.492319,74.0229737 199.330088,94.6651161 C191.740072,106.56968 184.152244,118.476433 176.569159,130.38501 C176.253957,130.879817 175.98764,131.405276 175.587436,132.113916 C179.901397,142.410356 184.24965,152.777587 188.590607,163.148468 C194.57251,177.436571 200.549671,191.727229 206.529021,206.016062 C204.842837,206.522181 203.156288,207.025746 201.424502,207.544272 C197.125499,204.189363 192.765207,201.106671 188.770097,197.60872 C177.532275,187.769502 164.270085,182.275172 149.859086,179.407772 C127.487051,174.955237 105.530543,175.506969 84.6046427,185.917259 C82.2851365,187.070714 80.0115973,188.316125 77.7176283,189.518477 C77.8066436,189.723552 77.8952942,189.928262 77.9846743,190.133337 C78.7872716,190.176031 79.5902337,190.219089 80.3931958,190.262877 L80.3275288,190.217264 C77.676404,192.54169 75.1566133,195.042729 72.3318357,197.133982 C70.1002504,198.787718 67.432344,199.837541 65.0789099,201.344952 C63.3890778,202.426521 61.4905704,203.534364 60.3840806,205.118403 C50.2677065,219.595891 46.9336444,235.616914 50.1925543,252.945016 C53.2515444,269.210524 60.1983887,283.220207 74.1716076,292.981336 C69.4337298,300.716894 64.7301449,308.473617 59.9514077,316.184726 C48.4658756,334.719559 36.949699,353.235782 25.4280501,371.749451 C24.6075767,373.067477 23.6473785,374.298657 22.0834083,375.467073 C22.0275913,374.600796 21.8382513,373.720652 21.9338333,372.87116 C25.960318,336.979762 30.0108806,301.090919 34.0629025,265.202075 C34.1074101,264.81163 34.2037218,264.426294 34.2748611,264.039862 C37.0084345,263.772754 39.8510882,263.884779 42.4507738,263.144758 C46.3714615,262.029252 48.1995593,258.482405 47.143779,255.147565 C45.8410177,251.0322 42.2194798,249.044214 38.1510412,250.198399 C37.3987886,250.411137 36.6319434,250.572424 35.8702056,250.757064" id="Fill-3" fill="#FEFEFE"></path>
            <path d="M546.991121,195.68703 C542.832366,187.962794 538.677256,180.237828 534.518502,172.513957 C533.038699,169.757517 531.551608,167.002535 530.068161,164.247189 C529.827602,164.289147 529.583398,164.330375 529.339194,164.372333 C529.339194,165.280444 529.335549,166.188191 529.339194,167.097396 C529.408446,177.556912 529.492277,188.017157 529.53237,198.477402 C529.53966,200.043337 529.342839,201.610732 529.240783,203.177033 C528.497237,203.432063 527.724533,203.621055 527.017435,203.951974 C509.784664,212.013331 492.559183,220.087458 475.340992,228.17472 C475.031181,228.320295 474.812491,228.658146 474.557353,228.900041 C475.687251,230.046034 476.700514,231.079289 477.721068,232.114368 C477.600788,232.226377 477.484154,232.342035 477.374809,232.460976 C476.336031,232.167636 475.282674,231.922457 474.265766,231.572201 C468.306464,229.521745 462.354451,227.445385 456.402439,225.377051 C456.427953,217.098973 456.376925,208.8198 456.497205,200.542452 C456.82524,177.972841 457.218882,155.403229 457.597944,132.833618 C457.940559,112.3338 458.294107,91.8343463 458.658591,71.3352579 C458.669525,70.5544792 458.818963,69.7737005 458.906439,68.9929219 C473.256147,66.380597 487.605855,63.7536781 501.962853,61.1595957 C508.450655,59.9884277 514.953038,58.8829327 521.44813,57.7446012 C521.480934,57.8504076 521.513737,57.9562141 521.550186,58.0620205 L516.075646,60.3605746 C516.163122,60.7108304 516.250598,61.0574378 516.338074,61.4040451 C526.142675,60.0176157 535.947276,58.6348348 545.751877,57.2484054 C550.464646,65.3444234 555.206574,73.4185505 559.87925,81.5342704 C565.594349,91.4552674 571.240195,101.412749 576.926135,111.3498 C577.192207,111.813889 577.545756,112.228723 578.391358,113.415215 C578.391358,111.505591 578.402292,110.472336 578.391358,109.439811 C578.183602,92.0645666 577.972202,74.6882279 577.775381,57.3140784 C577.760801,55.840085 577.881081,54.3624431 577.935753,52.8811528 C583.304593,52.2134776 588.680721,51.5932328 594.045916,50.8744786 C611.41719,48.5394396 628.788465,46.1715641 646.159739,43.8146341 C646.382074,48.0468923 646.699174,52.2718535 646.819454,56.5041117 C647.329731,74.6480945 647.759821,92.7920772 648.270097,110.934601 C648.568974,121.681253 648.969905,132.423527 649.301585,143.168719 C649.338034,144.444599 649.221399,145.725587 649.177661,147.004021 C648.350284,147.311225 647.497393,147.563336 646.699174,147.934753 C623.025984,158.964164 599.360082,170.003425 575.694181,181.051444 C575.05998,181.347337 574.476807,181.747577 573.871765,182.098563 C573.933727,182.245962 573.995689,182.391902 574.057651,182.539301 C581.471242,180.720525 588.888477,178.902478 596.305712,177.084796 C595.671511,177.860467 594.902451,178.250126 594.093299,178.527047 C580.95732,183.025281 567.799473,187.456747 554.689008,192.038167 C552.024635,192.970723 549.553438,194.456756 546.991121,195.68703" id="Fill-4" fill="#E92222"></path>
            <path d="M919.808016,33.0536933 C920.236194,32.3541903 920.616795,31.7894875 920.931524,31.1883522 C921.107186,30.8604602 921.1694,30.4779195 921.388978,29.7857031 L915.054153,29.7857031 C915.343264,31.27579 915.515267,32.1610984 915.690929,33.0536933 L919.808016,33.0536933 Z M894.091775,45.6483888 C899.892293,44.7958696 905.257315,44.0125721 911.152984,43.1491232 C904.748626,39.312787 897.685534,40.3766143 894.091775,45.6483888 L894.091775,45.6483888 Z M946.376953,11.5621951 L950.717277,11.5621951 C959.987128,100.386677 969.24234,189.105505 978.526829,278.10122 L893.623342,278.10122 C893.458658,277.252344 893.217123,276.429699 893.14393,275.592846 C890.490696,244.349476 887.85942,213.103555 885.206186,181.859456 C882.139413,145.702807 879.058002,109.547251 875.98757,73.3916941 C875.270282,64.9430106 874.556653,56.4906838 873.883281,48.0383571 C873.799109,46.9745297 873.952814,45.8924862 874.000389,44.8140859 C874.827466,44.5153398 875.680161,44.2748857 876.477961,43.906918 C889.927112,37.6842568 903.365285,31.4470225 916.814437,25.220718 C926.666169,20.6593761 936.521561,16.1126073 946.376953,11.5621951 L946.376953,11.5621951 Z" id="Fill-5" fill="#FEFEFE"></path>
            <path d="M241.589024,195.340244 C242.265886,183.315219 242.868067,171.286179 243.63491,159.26736 C245.117959,136.007225 246.688075,112.75293 248.230504,89.4964451 C249.740146,66.7320143 251.260717,41.3445124 252.779467,18.5778914 C252.81189,18.1033586 252.888756,17.6251757 252.99258,16.7345142 C278.534826,16.4315433 303.998384,16.1285724 329.806202,15.8219512 C329.806202,17.296653 329.857567,18.5377386 329.798187,19.775174 C327.898384,59.7308312 325.985466,102.316495 324.081291,142.273612 C323.761075,148.98241 323.493681,155.694128 323.155979,162.402196 C323.087127,163.773961 322.816091,165.135505 322.638679,166.502159 C317.983705,168.099874 313.348039,169.753073 308.661008,171.250407 C307.686152,171.562138 306.525869,171.29567 305.451196,171.29567 C302.450855,171.981917 299.510258,173.152918 296.794067,174.715956 C279.522068,184.646831 260.129866,188.843161 241.589024,195.340244" id="Fill-6" fill="#FEFEFE"></path>
            <path d="M415.661796,220.174112 C421.649726,225.715432 425.5687,228.083717 428.272573,227.857541 C428.414883,225.648674 424.955676,223.518603 415.661796,220.174112 M440.580488,219.805663 C439.675548,227.524843 436.095926,234.048571 431.319448,239.960894 C421.441736,252.191198 409.115577,261.105464 394.603695,267.172098 C371.907215,276.660196 348.235735,278.603853 324.004506,276.976113 C304.988723,275.698946 287.03661,271.014907 270.625085,261.082117 C259.718733,254.481416 250.27707,246.413486 244.689065,234.628969 C243.605691,232.344588 243.015291,229.827464 242.197561,227.418321 C248.304812,225.520993 254.411697,223.624395 260.358759,221.77814 C264.961547,225.160206 271.742759,222.010153 272.738193,217.932047 C278.4218,216.14416 284.152114,214.343139 289.880968,212.541389 C289.847763,212.429396 289.813828,212.316307 289.780257,212.204314 C285.116897,212.871534 280.453536,213.538389 275.790176,214.20561 C276.380576,213.38189 277.074242,213.101723 277.792356,212.921147 C283.716794,211.433855 289.635759,209.921027 295.578806,208.505236 C299.105518,207.664735 302.670544,206.986206 306.218055,206.235082 C306.348688,206.506494 306.478225,206.777905 306.608858,207.049317 C306.772696,206.2577 306.936169,205.466082 307.117522,204.589102 C311.659372,203.11093 316.239536,201.621085 320.818606,200.130874 C320.675932,205.247202 320.94559,210.416426 320.312496,215.471832 C318.178225,232.510937 333.593221,238.461199 345.38262,234.907312 C352.631992,232.722157 359.51355,228.492294 359.658049,217.067835 C359.764963,208.604097 360.411193,200.14729 360.816591,191.689024 C361.478876,191.868506 362.158311,192.004212 362.805635,192.231118 C380.113708,198.294833 396.800364,206.036266 414.585355,210.860388 C423.408521,213.253845 431.925174,216.787668 440.580488,219.805663" id="Fill-7" fill="#FEFEFE"></path>
            <path d="M546.465854,196.000041 C549.035681,194.768474 551.51412,193.280878 554.186301,192.347341 C567.335189,187.761106 580.531598,183.324981 593.706075,178.822019 C594.517599,178.544806 595.288913,178.154737 595.924972,177.378251 C588.485999,179.197844 581.047026,181.017802 573.611708,182.83849 C573.549565,182.690936 573.487421,182.544842 573.425277,182.397288 C574.032093,182.045934 574.616975,181.645273 575.253035,181.349068 C598.988294,170.289436 622.723553,159.238569 646.466123,148.197564 C647.266681,147.825756 648.122072,147.57338 648.951874,147.265854 C649.156583,151.208548 649.438057,155.149416 649.555034,159.095033 C650.702865,197.823286 651.825109,236.552269 652.947352,275.280522 C652.97294,276.15343 652.951007,277.028164 652.951007,278.10122 L588.855206,278.10122 C587.57212,275.692505 586.256135,273.280139 584.991327,270.839649 C572.401733,246.534463 559.815795,222.224894 547.240823,197.912403 C546.926449,197.304289 546.72174,196.638834 546.465854,196.000041" id="Fill-8" fill="#FEFEFE"></path>
            <path d="M440.835399,219.681707 C432.157413,216.669566 423.61845,213.14369 414.772172,210.753784 C396.940594,205.939019 380.210226,198.212602 362.856449,192.160649 C362.208527,191.934183 361.526946,191.798741 360.862195,191.619607 C361.390118,175.988732 361.913285,160.358586 362.45694,144.729532 C362.477062,144.149896 362.692182,143.577541 362.817669,143.002639 C365.067653,140.414302 367.317636,137.827057 369.512743,135.301709 C367.939583,131.396448 369.062746,128.249956 371.250535,125.344494 C375.457822,119.753847 379.694376,114.186502 383.828493,108.733117 C382.493137,104.711711 383.711421,102.712476 387.995536,102.973895 C386.371158,106.137135 384.838242,108.990895 383.426057,111.902547 C381.922409,115.000249 380.535834,118.15293 379.098039,121.281217 C379.943155,121.194563 380.433396,120.881079 380.788271,120.453634 C389.671134,109.723086 397.613759,98.3801343 403.957616,85.9401703 C405.516142,82.8828817 407.842954,80.2133522 409.81855,77.3661453 C409.9905,77.4571685 410.166108,77.5445508 410.338058,77.6355741 L407.502713,85.633604 C407.725882,85.7402832 407.949051,85.8458702 408.17222,85.9518213 L424.818441,66.3304878 C425.005025,66.4469976 425.187951,66.5635073 425.374535,66.680017 C424.591614,69.010212 423.808693,71.3440478 422.890407,74.0783859 C430.792789,72.986107 438.120785,71.9739286 445.44878,70.9617502 C445.371952,80.1128625 445.295123,89.2636108 445.207319,98.4150872 C445.200002,99.299469 445.093905,100.183487 445.079271,101.067868 C444.779273,119.476044 444.4683,137.883856 444.201229,156.291667 C443.985376,171.047263 443.967084,185.807955 443.571965,200.558089 C443.425624,206.031498 442.496363,211.486703 441.837831,216.940451 C441.724417,217.879811 441.179299,218.76929 440.835399,219.681707" id="Fill-9" fill="#E92222"></path>
            <path d="M80.0519768,190.582764 C79.2499744,190.540064 78.4483364,190.49627 77.6463341,190.453206 C77.5570607,190.248102 77.4677874,190.043364 77.3785141,189.838261 C79.6708344,188.635743 81.9420205,187.390161 84.2576612,186.237642 C105.15855,175.825189 127.089543,175.273381 149.434109,179.726164 C163.828612,182.593959 177.074222,188.089045 188.298612,197.929617 C192.289676,201.42805 196.644028,204.511166 200.938621,207.866538 C202.667608,207.349035 204.35287,206.844671 206.037039,206.339212 C209.976725,215.614839 213.916411,224.890465 217.856098,234.166822 C214.311765,235.270438 210.76816,236.373323 207.263909,237.463801 C206.909002,238.872151 206.567942,239.999489 206.34239,241.149453 C203.885734,253.67279 199.379435,265.310023 191.650552,275.580509 C191.311313,276.03159 191.353217,276.770983 191.218396,277.376074 L156.057825,277.376074 C155.565546,275.255702 155.107155,273.279485 154.648035,271.302539 C160.088242,268.669043 163.968534,264.321732 166.803782,259.198897 C169.899562,253.607099 174.064072,248.294124 173.039797,241.178285 C171.96961,233.743112 170.00086,226.946241 162.865918,222.840894 C159.043198,220.641326 155.452588,218.039217 151.595981,215.512287 L151.595981,212.43428 C146.367115,211.775906 141.201651,211.125926 136.047119,210.476676 C135.77857,209.29788 135.59055,208.470169 135.36682,207.489907 C133.246852,207.27641 131.20231,207.069482 129.158498,206.863649 C126.76488,201.272215 124.399319,195.667278 121.963068,190.094093 C121.002925,187.89927 119.882453,185.773423 118.225249,183.779689 C117.400655,191.738932 116.576061,199.698176 115.752196,207.65815 C112.602123,208.366887 109.470633,209.18146 106.29724,209.76137 C98.8609546,211.118992 93.346414,215.066316 89.6348302,221.652974 C88.8794685,222.994903 87.9287988,224.27917 86.8524176,225.378407 C83.883442,228.40897 81.680395,231.794267 81.570352,236.140119 C81.9041249,237.899919 81.7729478,239.583443 81.6417707,241.265873 C81.5823766,242.034098 81.3662987,242.826774 81.4836293,243.566167 C82.7159656,251.322863 85.9611419,258.016452 91.9901883,263.206803 C85.9385503,273.242625 79.887641,283.277717 73.8367317,293.314634 C59.8805787,283.552891 52.9420376,269.541279 49.8867037,253.274262 C46.6316891,235.944139 49.9624949,219.920546 60.0660486,205.440335 C61.172309,203.856077 63.0681829,202.748812 64.7549021,201.666364 C67.1058877,200.159841 69.771334,199.108778 72.000252,197.455909 C74.8205601,195.363273 77.3377034,192.86262 79.9856595,190.537145 C80.1069983,190.430578 80.2294303,190.324377 80.3504047,190.216716 C80.1988223,190.261241 80.0476042,190.308684 79.8963861,190.355033 C79.948857,190.431308 80.0005991,190.506489 80.0519768,190.582764" id="Fill-10" fill="#E92222"></path>
            <path d="M814.830488,72.2956885 C788.660705,84.5895541 762.487271,96.8808619 736.321138,109.177651 C733.922485,110.303514 731.545737,111.471034 729.161687,112.618822 C729.238357,112.855615 729.315026,113.092408 729.395346,113.329201 C735.736991,111.407817 742.078637,109.486432 748.420282,107.564682 C731.640661,115.298091 714.335308,121.581874 696.77439,127.184146 C700.512931,110.322881 704.182104,93.4473642 708.008266,76.6076587 C710.983765,63.5182711 714.156413,50.4690797 717.256042,37.4089258 C717.434938,36.6451955 717.734313,35.9143531 717.978924,35.1688938 C726.982089,33.9995459 735.992556,32.8740486 744.988419,31.6608502 C762.892523,29.245416 780.789325,26.7824771 798.689778,24.3414634 C800.913187,30.6595961 803.220567,36.9558035 805.349053,43.3104783 C808.572814,52.9502897 811.676094,62.6339517 814.830488,72.2956885" id="Fill-11" fill="#E92222"></path>
            <path d="M426.260985,56.254391 C426.934742,58.6813022 428.347811,58.9541933 430.503834,58.095496 C430.908089,56.3271619 431.312343,54.5297194 431.720239,52.7359155 C431.516291,52.6485903 431.312343,52.5612652 431.108395,52.47394 C429.582426,53.6637451 428.052815,54.8535501 426.260985,56.254391 M444.94409,71.0123399 C437.649303,72.0238561 430.354515,73.0353724 422.487945,74.1269366 C423.402069,71.3943874 424.181443,69.0620784 424.957174,66.733408 C424.775077,66.6169744 424.592981,66.5005409 424.407242,66.3841074 L407.836457,85.9933318 C407.614299,85.8867224 407.392142,85.7808406 407.169984,85.6745951 L409.99248,77.6817976 C409.817667,77.5908339 409.646497,77.4998702 409.475326,77.4125451 C407.508683,80.2575254 405.192415,82.9253085 403.640953,85.9809608 C397.325845,98.4124224 389.419213,109.748317 380.576605,120.472572 C380.223338,120.898646 379.735319,121.213017 378.894033,121.298523 C380.325312,118.172283 381.709245,115.021664 383.202437,111.925988 C384.608222,109.016605 386.134191,106.164348 387.751209,103.004269 C383.486508,102.742294 382.277387,104.74022 383.603049,108.758996 C379.487668,114.208813 375.270312,119.772152 371.082091,125.359142 C368.904217,128.262703 367.786144,131.408227 369.352174,135.309842 C367.167016,137.833538 364.927228,140.419454 362.687805,143.006098 C362.786501,137.312498 362.788322,131.614533 363.000647,125.924208 C364.28552,91.5715891 365.615553,56.3453547 366.937574,21.9974656 C366.992203,20.5420466 367.094177,19.0902661 367.192509,17.3110163 C393.571014,17.016294 419.723719,16.7252102 446.036669,16.4304878 C446.036669,20.5966248 446.087656,25.2794355 446.029386,29.0889948 C445.840005,41.0088766 445.625131,52.9251199 445.381122,64.8413632 C445.341061,66.9007812 445.093409,68.9565605 444.94409,71.0123399" id="Fill-12" fill="#FEFEFE"></path>
            <path d="M492.522861,235.704831 C490.629236,235.527102 489.030579,235.376379 486.987648,235.184417 C487.690475,236.91098 488.189372,238.134646 488.699195,239.382763 C490.119414,239.286417 491.255589,239.210144 492.522861,239.125111 L492.522861,235.704831 Z M456.223517,225.457129 C462.170229,227.526011 468.116942,229.602558 474.070937,231.653923 C475.08694,232.004272 476.139359,232.249516 477.177212,232.541108 C477.435764,232.594755 477.690675,232.650592 478.593789,232.845109 C477.836339,232.386006 477.679751,232.291485 477.519521,232.196234 C476.50716,231.16161 475.491157,230.127351 474.365906,228.980689 C474.617176,228.739094 474.835671,228.400788 475.145206,228.25554 C492.348065,220.166132 509.558208,212.089498 526.775634,204.026366 C527.482102,203.69536 528.254118,203.505952 528.997002,203.25122 C529.088042,204.129646 529.255555,205.008073 529.255555,205.887594 C529.324745,229.104406 529.379369,252.321947 529.426829,275.539488 C529.430351,276.123768 529.350236,276.708778 529.295612,277.492683 L455.396877,277.492683 C455.305837,276.557325 455.178381,275.889107 455.185366,275.224175 C455.455142,259.121998 455.739186,243.020917 456.026871,226.919835 C456.037796,226.431171 456.154327,225.945062 456.223517,225.457129 L456.223517,225.457129 Z" id="Fill-13" fill="#FEFEFE"></path>
            <path d="M545.857317,57.6281897 C536.032926,59.011455 526.208535,60.3947204 516.384144,61.7816355 C516.296491,61.4349067 516.208838,61.0881779 516.121186,60.7377993 L521.606775,58.4384401 C521.570253,58.3325966 521.537384,58.2267531 521.504514,58.1209095 C514.996311,59.2559901 508.480804,60.3655221 501.979906,61.5371004 C487.59393,64.1320916 473.215257,66.7599307 458.836585,69.3731707 C458.968064,55.5697157 459.106847,41.7626109 459.22737,27.9591559 C459.256587,24.5174166 459.231022,21.0756773 459.231022,17.0390244 L523.063999,17.0390244 C524.26557,19.1558948 525.821403,21.8786281 527.369931,24.6050112 C533.209783,34.901031 539.053287,45.1934009 544.87853,55.4930704 C545.26201,56.1719289 545.532272,56.9128335 545.857317,57.6281897" id="Fill-14" fill="#FEFEFE"></path>
            <path d="M320.876141,200.183445 C316.281401,201.680307 311.685928,203.177168 307.129263,204.661571 C306.946206,205.542832 306.782919,206.337983 306.618533,207.132767 C306.48783,206.860144 306.357493,206.587521 306.22679,206.314898 C302.667056,207.069375 299.090115,207.750932 295.551615,208.595184 C289.58907,210.017294 283.649956,211.536874 277.705716,213.03117 C276.985202,213.212186 276.289218,213.493604 275.697211,214.321366 C280.376158,213.651168 285.055105,212.98097 289.734052,212.310772 C289.767368,212.423632 289.801783,212.536858 289.835099,212.649352 C284.085999,214.45951 278.33763,216.269301 272.635026,218.064069 C271.635167,222.160377 264.832388,225.324855 260.21385,221.927328 C254.246911,223.78219 248.11998,225.686887 241.991951,227.592683 C238.886931,216.834701 239.46759,205.97192 241.07044,195.080192 C259.703486,188.558493 279.192508,184.346028 296.550743,174.375868 C299.280861,172.807919 302.235773,171.632049 305.251461,170.94353 C306.331133,170.94353 307.496477,171.210656 308.476932,170.897726 C313.187731,169.394635 317.846175,167.735446 322.52439,166.130488 C321.974486,177.482084 321.425314,188.832948 320.876141,200.183445" id="Fill-15" fill="#E92222"></path>
            <path d="M595.622578,30.8796608 C590.769357,30.0928719 586.669222,31.7872125 582.601831,33.397385 C581.906954,33.6755057 581.601354,34.9563247 581.146592,35.7284756 C585.032079,38.5352989 592.621148,35.8602169 595.622578,30.8796608 M645.657317,43.848868 C628.31815,46.2128939 610.98262,48.5878983 593.639815,50.9299674 C588.284537,51.6508855 582.918345,52.2729976 577.559429,52.9426829 C577.555791,51.0507303 577.552153,49.1551182 577.548515,47.259506 C578.963734,46.2641267 581.586802,46.0957905 580.291639,43.0584197 C579.374839,42.8608076 578.43621,42.6558766 577.50122,42.4509456 L577.50122,15.2134146 L644.969717,15.2134146 C645.191641,24.5414364 645.424479,34.1951522 645.657317,43.848868" id="Fill-16" fill="#FEFEFE"></path>
            <path d="M129.618293,206.293902 C131.651666,206.499946 133.68504,206.707086 135.794905,206.920802 C136.016767,207.902067 136.204552,208.730627 136.471729,209.91063 C141.599571,210.560545 146.738289,211.210825 151.941173,211.870238 L151.941173,214.952128 C155.778082,217.480915 159.350352,220.085689 163.152459,222.287509 C170.252047,226.396695 172.210741,233.200526 173.275462,240.643678 C174.294505,247.766804 170.151266,253.08522 167.071298,258.682744 C164.250532,263.810825 160.390059,268.162223 154.977639,270.79878 C150.243493,259.027247 145.492309,247.261558 140.780277,235.47943 C137.272898,226.70978 133.805759,217.92369 130.35167,209.13212 C129.997488,208.229765 129.857556,207.241923 129.618293,206.293902" id="Fill-17" fill="#FEFEFE"></path>
            <path d="M799.008537,24.4517737 C781.05829,26.896376 763.111705,29.3629358 745.157797,31.781921 C736.136911,32.996903 727.10138,34.124055 718.073171,35.295122 C719.555906,28.3565502 721.042302,21.4179784 722.631208,13.9963415 L795.669637,13.9963415 C796.680093,17.1582223 797.844315,20.8031682 799.008537,24.4517737" id="Fill-18" fill="#FEFEFE"></path>
            <path d="M946.27439,11.7194865 C936.450282,16.2781546 926.626174,20.8331728 916.805714,25.4027905 C903.399254,31.6403916 890.003738,37.8889423 876.597277,44.1228936 C875.80201,44.4915289 874.952022,44.7324193 874.12757,45.0317073 C873.635088,40.2759471 873.087886,35.5201868 872.668364,30.7571269 C872.194122,25.3954908 871.836616,20.0229052 871.42439,14.6539694 C876.903711,13.9203486 882.379383,13.1830781 887.855056,12.4458075 C888.537235,12.3509113 889.215766,12.1757183 889.894297,12.1684185 C908.29854,11.9530771 926.70643,11.7523351 945.110673,11.5625427 C945.497363,11.555243 945.887701,11.6647386 946.27439,11.7194865" id="Fill-19" fill="#E92222"></path>
            <path d="M89.6559419,232.718479 C86.8497841,231.733609 86.0704165,233.685885 85.1654378,235.227041 C84.0845313,237.066168 84.3487851,238.771408 86.2503262,240.290007 C87.0550332,240.14848 87.9672517,239.98767 88.9782939,239.810488 C89.2215521,237.266999 89.4412809,234.965088 89.6559419,232.718479 M92.0157642,262.887805 C86.0262535,257.713145 82.8023576,251.04026 81.5781025,243.308286 C81.4615412,242.571543 81.6754782,241.781319 81.7352068,241.015471 C81.8655237,239.338245 81.9958406,237.659928 81.6642564,235.905571 C81.7735779,231.572799 83.9621782,228.197245 86.9116846,225.176056 C87.9810074,224.080948 88.9254431,222.801017 89.6758514,221.462511 C93.3630964,214.896954 98.8414752,210.961477 106.228997,209.608054 C109.38158,209.030302 112.492535,208.218248 115.621951,207.510976 C115.039145,214.164578 114.532719,220.826911 113.817424,227.466324 C113.655976,228.964913 112.982671,230.518075 112.179774,231.817288 C106.451984,241.086053 100.647813,250.307884 94.8139582,259.509341 C94.0371245,260.735426 92.95658,261.766501 92.0157642,262.887805" id="Fill-20" fill="#FEFEFE"></path>
            <path d="M191.689024,276.884146 C191.822778,276.27983 191.780368,275.53976 192.118558,275.089442 C199.807021,264.819706 204.290115,253.182593 206.733561,240.66017 C206.957933,239.509925 207.296485,238.383035 207.650623,236.975517 C211.135461,235.884024 214.661258,234.781584 218.18633,233.678049 C221.08867,240.56456 223.586849,247.662363 227.007528,254.27737 C230.295904,260.640213 231.060727,267.137713 230.436182,274.030428 C230.382898,274.620148 230.323815,275.209503 230.226309,275.790829 C230.17955,276.070362 230.034922,276.333109 229.893194,276.714821 C219.369449,276.714821 208.837005,276.714821 198.305648,276.714821 C197.861254,275.682446 197.413959,274.649707 196.739755,273.090745 C195.695826,274.577087 194.953839,275.633181 194.210765,276.690371 C193.370547,276.755328 192.529242,276.81919 191.689024,276.884146" id="Fill-21" fill="#FEFEFE"></path>
            <path d="M35.7002433,250.981177 C36.4742364,250.798748 37.2552793,250.639393 38.0199963,250.429203 C42.158225,249.288842 45.8415564,251.253017 47.1654334,255.318729 C48.2403414,258.613986 46.3803091,262.11835 42.3934655,263.220495 C39.7486799,263.951652 36.8578936,263.840969 34.0780488,264.104878 C34.6193987,259.730191 35.1600065,255.356224 35.7002433,250.981177" id="Fill-22" fill="#E92222"></path>
            <path d="M887.246341,12.283311 C881.856883,13.0208573 876.467424,13.7584037 871.074375,14.4922988 C870.998973,13.8496841 870.927162,13.2107207 870.815854,12.283311 L887.246341,12.283311 Z" id="Fill-23" fill="#FEFEFE"></path>
            <path d="M37.5744108,234.66852 C39.3569678,234.538793 41.1395247,234.409428 42.8267516,234.286585 C43.8068517,236.86881 42.8045462,237.834155 40.7765814,237.930544 C39.5675361,237.988885 38.3397311,237.680874 37.1207317,237.53484 C37.2723409,236.578192 37.4239502,235.623356 37.5744108,234.66852" id="Fill-24" fill="#E92222"></path>
            <path d="M577.751418,42.597561 C578.689782,42.8050377 579.631796,43.0088094 580.551904,43.2125812 C581.851738,46.2876824 579.219209,46.4581097 577.798884,47.4658537 C577.784279,45.8430894 577.769674,44.2203252 577.751418,42.597561" id="Fill-25" fill="#E92222"></path>
            <path d="M194.123171,276.847086 C194.896164,275.789328 195.668025,274.73157 196.753986,273.245524 C197.455335,274.805325 197.919508,275.838255 198.382927,276.87155 C196.962128,276.862787 195.542084,276.854754 194.123171,276.847086" id="Fill-26" fill="#E92222"></path>
            <path d="M716.247561,138.559124 C714.746125,144.787879 706.542104,148.10033 701.427163,144.667184 C699.631186,143.460233 699.397709,141.797158 700.4286,139.989694 C703.255467,135.028978 712.407763,134.140425 716.247561,138.559124" id="Fill-27" fill="#E92222"></path>
            <path d="M715.792236,129.21654 C717.217102,128.602096 718.641968,127.987651 720.507317,127.184146 L720.507317,132.052439 C718.569193,131.504953 717.102193,131.090668 715.639024,130.677458 C715.688818,130.191202 715.742442,129.703871 715.792236,129.21654" id="Fill-28" fill="#E92222"></path>
            <path d="M54.1578718,273.248865 C53.9062281,275.218829 52.4686812,276.210204 50.3726239,276.273431 C47.2005978,276.367915 44.2674324,273.374252 44.4295947,270.352884 C44.5358768,268.381855 45.8225835,267.741776 47.611482,267.75634 C51.2634209,267.785111 54.2455271,270.202987 54.1578718,273.248865" id="Fill-29" fill="#E92222"></path>
            <path d="M146.767745,176.253274 C151.406828,173.886996 159.861169,175.884792 162.479268,180.735366 L146.657317,177.158202 C146.694248,176.856313 146.73118,176.554423 146.767745,176.253274" id="Fill-30" fill="#E92222"></path>
            <path d="M76.8565277,190.473802 C76.8251272,190.525284 76.7926313,190.578957 76.7601355,190.632265 C76.671776,190.573481 76.5830513,190.513966 76.4946918,190.455181 C76.5585882,190.403699 76.6235799,190.309132 76.683825,190.311688 C76.7433399,190.314974 76.797743,190.416843 76.8565277,190.473802" id="Fill-31" fill="#E92222"></path>
            <path d="M893.940244,45.6402439 C897.529331,40.2856084 904.583238,39.2095042 910.979268,43.1034484 C905.091266,43.9798631 899.73322,44.774923 893.940244,45.6402439" id="Fill-32" fill="#E92222"></path>
            <path d="M919.805685,33.2814744 L915.850725,33.2814744 C915.68198,32.3869256 915.516751,31.4996793 915.239024,30.0063305 L921.32439,30.0063305 C921.113459,30.7000622 921.053695,31.0834402 920.88495,31.41205 C920.582615,32.0145012 920.217001,32.5804402 919.805685,33.2814744" id="Fill-33" fill="#E92222"></path>
            <path d="M415.630488,220.290244 C425.045406,223.72719 428.549664,225.916143 428.405501,228.186072 C425.666414,228.4185 421.696401,225.984747 415.630488,220.290244" id="Fill-34" fill="#E92222"></path>
            <path d="M80.2552654,190.65506 C80.2037832,190.578749 80.1519359,190.503534 80.0993583,190.427224 C80.2508839,190.380853 80.4024095,190.333387 80.5543002,190.288843 C80.4330798,190.396554 80.3103988,190.502804 80.1888132,190.60942 C80.1895434,190.60942 80.2552654,190.65506 80.2552654,190.65506" id="Fill-35" fill="#FEFEFE"></path>
            <path d="M426.584146,56.1271458 C428.381745,54.7216552 429.91628,53.5279008 431.447162,52.3341463 C431.651766,52.4217613 431.856371,52.5093763 432.060976,52.5969913 C431.651766,54.3967495 431.24621,56.2001583 430.840655,57.9743621 C428.677691,58.8359097 427.260073,58.5621128 426.584146,56.1271458" id="Fill-36" fill="#E92222"></path>
            <path d="M492.306098,236.031685 L492.306098,239.501994 C491.052192,239.58827 489.928001,239.665659 488.522762,239.763415 C488.018317,238.497041 487.524681,237.255476 486.829268,235.503659 C488.850651,235.698428 490.432445,235.851356 492.306098,236.031685" id="Fill-37" fill="#E92222"></path>
            <path d="M477.334272,232.135835 C477.494926,232.231496 477.651928,232.326063 478.411382,232.786117 C477.505879,232.590776 477.250294,232.535278 476.991057,232.48124 C477.100594,232.363671 477.217433,232.247927 477.334272,232.135835" id="Fill-38" fill="#E92222"></path>
            <path d="M595.757317,31.2309984 C592.729163,36.1306689 585.072522,38.7623067 581.152439,36.001067 C581.61125,35.2414561 581.919571,33.981438 582.620635,33.7078341 C586.724242,32.1238113 590.860884,30.4569873 595.757317,31.2309984" id="Fill-39" fill="#E92222"></path>
            <path d="M89.454878,232.729745 C89.2509344,234.997326 89.0421759,237.320724 88.8110627,239.887956 C87.8504985,240.066792 86.983824,240.229103 86.2192934,240.371951 C84.4126898,238.839177 84.1616293,237.118019 85.1885698,235.261724 C86.0483659,233.706182 86.7888223,231.735682 89.454878,232.729745" id="Fill-40" fill="#E92222"></path>
        </g>
    </g>
</svg>